 <svg  version="1.0" xmlns="http://www.w3.org/2000/svg"  width="117.000000pt" height="117.000000pt" viewBox="0 0 117.000000 117.000000"  preserveAspectRatio="xMidYMid meet">  <g transform="translate(0.000000,117.000000) scale(0.050000,-0.050000)" fill="#ffffff" stroke="none"> <path d="M1770 2296 c-336 -50 -309 -6 -315 -512 -5 -458 -5 -455 -75 -359 -300 408 -683 832 -745 824 -36 -4 -135 -13 -220 -20 -123 -10 -160 -20 -175 -49 -25 -47 -173 -1275 -229 -1904 -15 -167 -42 -155 404 -174 l375 -16 190 200 c233 244 248 271 231 397 -18 137 -17 136 242 -254 277 -416 236 -389 601 -404 l292 -11 -12 248 c-6 136 -26 392 -44 568 -96 962 -151 1434 -170 1470 -25 46 -11 46 -350 -4z m257 -105 c6 -16 30 -221 53 -455 23 -234 64 -633 93 -886 28 -253 56 -524 61 -602 l11 -142 -228 27 c-271 32 -229 -5 -550 487 -126 193 -251 372 -277 399 l-48 48 -21 -55 c-12 -30 -21 -142 -22 -248 l-1 -194 -167 -175 -166 -175 -334 0 c-309 0 -333 3 -323 35 12 38 186 1466 206 1688 15 175 13 173 186 179 l150 6 428 -512 c243 -290 440 -508 453 -503 43 17 48 84 49 569 l0 473 175 29 c234 40 259 41 272 7z"/> </g> </svg> 